<?xml version="1.0" encoding="utf-8"?>
<!-- Generator: Adobe Illustrator 19.2.1, SVG Export Plug-In . SVG Version: 6.00 Build 0)  -->
<svg version="1.1" id="ACCOUNT" xmlns="http://www.w3.org/2000/svg" xmlns:xlink="http://www.w3.org/1999/xlink" x="0px" y="0px"
	 viewBox="0 0 32.7 26.9" enable-background="new 0 0 32.7 26.9" xml:space="preserve">
<g>
	<g>
		<path fill="#003755" d="M30.8,18.9H1.9c-1.1,0-1.9,0.9-1.9,1.9V25c0,1.1,0.9,1.9,1.9,1.9h28.8c1.1,0,1.9-0.9,1.9-1.9v-4.3
			C32.7,19.7,31.8,18.9,30.8,18.9z M6.7,23.4H5.6v1.1c0,0.3-0.2,0.5-0.5,0.5s-0.5-0.2-0.5-0.5v-1.1H3.5c-0.3,0-0.5-0.2-0.5-0.5
			s0.2-0.5,0.5-0.5h1.1v-1.1c0-0.3,0.2-0.5,0.5-0.5s0.5,0.2,0.5,0.5v1.1h1.1c0.3,0,0.5,0.2,0.5,0.5S7,23.4,6.7,23.4z"/>
	</g>
	<g>
		<g>
			<path fill="#003755" d="M30.8,8.1H1.9C0.9,8.1,0,7.2,0,6.2V1.9C0,0.9,0.9,0,1.9,0h28.8c1.1,0,1.9,0.9,1.9,1.9v4.3
				C32.7,7.2,31.8,8.1,30.8,8.1z M1.9,1C1.4,1,1,1.4,1,1.9v4.3c0,0.5,0.4,0.9,0.9,0.9h28.8c0.5,0,0.9-0.4,0.9-0.9V1.9
				c0-0.5-0.4-0.9-0.9-0.9H1.9z"/>
		</g>
	</g>
	<path fill="#003755" d="M6.7,3.5H5.6V2.4c0-0.3-0.2-0.5-0.5-0.5S4.6,2.1,4.6,2.4v1.1H3.5C3.2,3.5,3,3.8,3,4s0.2,0.5,0.5,0.5h1.1
		v1.1c0,0.3,0.2,0.5,0.5,0.5s0.5-0.2,0.5-0.5V4.5h1.1C7,4.5,7.2,4.3,7.2,4S7,3.5,6.7,3.5z"/>
	<g>
		<g>
			<g>
				<path fill="#003755" d="M30.8,9.4H1.9C0.9,9.4,0,10.3,0,11.3v4.3c0,1.1,0.9,1.9,1.9,1.9h28.8c1.1,0,1.9-0.9,1.9-1.9v-4.3
					C32.7,10.3,31.8,9.4,30.8,9.4z M31.7,15.6c0,0.5-0.4,0.9-0.9,0.9H1.9c-0.5,0-0.9-0.4-0.9-0.9v-4.3c0-0.5,0.4-0.9,0.9-0.9h28.8
					c0.5,0,0.9,0.4,0.9,0.9V15.6z"/>
			</g>
		</g>
		<path fill="#003755" d="M6.7,13H5.6v-1.1c0-0.3-0.2-0.5-0.5-0.5s-0.5,0.2-0.5,0.5V13H3.5C3.2,13,3,13.2,3,13.5S3.2,14,3.5,14h1.1
			v1.1c0,0.3,0.2,0.5,0.5,0.5s0.5-0.2,0.5-0.5V14h1.1c0.3,0,0.5-0.2,0.5-0.5S7,13,6.7,13z"/>
	</g>
</g>
</svg>
